<svg xmlns="http://www.w3.org/2000/svg" viewBox="0 0 6322.26 1958.55"><defs><style>.a{fill:#e3008c;}</style></defs><path class="a" d="M6788.35,466.91a165.65,165.65,0,0,0-163.86,141.42c-34.1,230.5-87.22,629-109.85,829.94-23.67,210.09-48.14,427.33-76.93,596-26.66,156.19-50.57,355.14-66.25,390-15.66-34.9-39.57-233.84-66.24-390-28.77-168.69-53.24-385.94-76.91-596-82.65-734-128.56-971.33-284.06-971.33s-201.4,237.34-284.05,971.36c-23.66,210.09-48.12,427.33-76.91,596-19.77,115.83-38,238.57-52.52,281.62-4.43,13.14-23,13.14-27.41,0-14.51-43.05-32.76-165.8-52.53-281.63-28.79-168.69-53.25-385.94-76.92-596-82.65-734-128.55-971.33-284-971.33s-201.42,237.33-284.08,971.33c-23.67,210.09-48.13,427.34-76.92,596-26.67,156.23-50.59,355.14-66.25,390.06-15.67-34.83-39.6-233.78-66.27-390-28.8-168.68-53.27-385.94-76.94-596-82.67-734-128.59-971.33-284.1-971.33s-201.46,237.33-284.16,971.32c-19.34,171.6-102.91,836.45-125.23,987.23h0a162.75,162.75,0,0,0,161.32-141.21c32.11-240.39,87.53-676.73,104.82-830.15,23.68-210.09,48.15-427.34,77-596,19.79-115.91,38.06-238.66,52.57-281.69,4.43-13.14,23-13.14,27.41,0,14.51,43,32.78,165.79,52.57,281.7,28.79,168.69,53.27,385.93,76.93,596,82.68,734,128.6,971.33,284.12,971.33S4864,2188.13,4946.69,1454.1c23.67-210.09,48.14-427.34,76.93-596,19.77-115.83,38-238.58,52.54-281.61,4.43-13.14,23-13.14,27.4,0,14.51,43,32.76,165.78,52.53,281.61,28.79,168.69,53.25,385.93,76.92,596,82.65,734,128.55,971.36,284.06,971.36s201.39-237.32,284-971.32c23.66-210.1,48.13-427.34,76.92-596,19.77-115.83,38-238.58,52.53-281.62,4.43-13.14,23-13.14,27.41,0,14.5,43,32.76,165.79,52.53,281.62,28.78,168.69,53.24,385.93,76.91,596,82.66,734,128.56,971.33,284.06,971.33s201.42-237.32,284.08-971.32c23.67-210.1,101.24-811.48,132.81-987.23ZM554.12,810.39l-1.91-114.72h.64L732.39,1037.6H858.55V570.47H770.21V797.68l2.22,114.72h-.63L591.62,570.47H466.1V1037.6h88Zm415.43,211.32a119.83,119.83,0,0,0,39.08,19.22,166.29,166.29,0,0,0,47,6.52,183.83,183.83,0,0,0,38-3.66,125.15,125.15,0,0,0,31.3-10.79,114.54,114.54,0,0,0,25.43-17.65,98.11,98.11,0,0,0,19.06-23.83c.21,4.25.48,8.53.8,12.87s.63,8.58,1,12.71.74,7.95,1.27,11.45,1,6.51,1.43,9H1266q-2.87-10.49-4.93-21.77t-3.34-23.67q-1.27-12.39-1.59-26.54t-.31-30.34l.63-97.56q.32-39.72-10.32-67.05T1216,726.19q-19.55-17.18-48-25t-64-7.79q-35.6,0-63.55,8.58t-47.19,23.68A109.08,109.08,0,0,0,963,762.25a131.06,131.06,0,0,0-13.51,47.19h96q.32-14.61,4.29-25.11a48.17,48.17,0,0,1,11.28-17.63,45.87,45.87,0,0,1,17.64-10.65,74,74,0,0,1,23.67-3.49,67.86,67.86,0,0,1,24.15,4,42.51,42.51,0,0,1,17.64,12.39q7.15,8.43,11.12,21.3t4,30.66v10.28a878.45,878.45,0,0,0-91.83,10.22q-41.94,7.15-71.82,20.65t-45.92,34.8q-16,21.3-16,52.11v.64q0,23.19,9.53,41.31A91.62,91.62,0,0,0,969.55,1021.71Zm65.14-77.53q0-15.25,7.78-25.74t24-17.48q16.21-7,40.52-11,23.58-3.86,55.13-5.76v22.12a120.43,120.43,0,0,1-2.7,26.54,96.94,96.94,0,0,1-7.3,21.28,58.53,58.53,0,0,1-11.61,16.21,71.16,71.16,0,0,1-15.25,11.44,63.89,63.89,0,0,1-18,6.68,95.61,95.61,0,0,1-19.86,2.06,70,70,0,0,1-21.61-3.18,49.09,49.09,0,0,1-16.84-9,38.4,38.4,0,0,1-10.65-14.3,47.8,47.8,0,0,1-3.65-19.23ZM1351,928.92q0,29.25,6.2,49.74t20.5,33.52q14.29,13,38.13,19.23t58.79,6.19h42.9V967.38h-20.34a103.59,103.59,0,0,1-21.13-1.91,32.81,32.81,0,0,1-15.1-7.16q-6-5.23-9.21-14.93t-3.18-25.26V776.71h70.54V706.48h-70.54V617.19H1351v89.29h-48v70.23h48Zm342.66-222.44h-97.88V1037.6h97.88Zm0-136h-97.88v86.12h97.88Zm120.21,428.05q23.2,23.19,56.09,36.06t73.88,12.87q41.31,0,74.36-12.87t56.09-36.06q23-23.21,35.27-55.77t12.24-71.34v-.64q0-39.09-12.24-71.34a158,158,0,0,0-35.27-55.61q-23-23.36-56.09-36.22t-74.36-12.88q-41,0-73.88,12.88t-56.09,36.22a156.71,156.71,0,0,0-35.43,55.61q-12.24,32.25-12.23,71.34v.64q0,38.77,12.23,71.34A154.67,154.67,0,0,0,1813.83,998.52Zm53.71-127.75q0-26.37,4.76-47.19t14.3-35.27a66.45,66.45,0,0,1,23.84-22.25q14.3-7.78,33.68-7.78,19.07,0,33.53,7.78a64.85,64.85,0,0,1,23.83,22.25q9.36,14.46,14.3,35.27t4.92,47.19v.32q0,26.37-4.92,47.19t-14.3,35.43A63,63,0,0,1,1977.65,976q-14.48,7.63-33.53,7.63-19.38,0-33.68-7.63a64.56,64.56,0,0,1-23.84-22.24q-9.52-14.61-14.3-35.43t-4.76-47.19Zm424.95-24.15q0-20.34,3.66-35.59t11.28-25.58A47,47,0,0,1,2326.66,770q11.6-5.09,27.16-5.09,15.25,0,26.7,5.09a47.26,47.26,0,0,1,19.06,15.41q7.64,10.34,11.28,25.58t3.66,35.59v191h97.87V832.32q0-31.77-7.15-56.88t-21.76-42.74a93.44,93.44,0,0,0-36.87-26.85q-22.24-9.23-52.11-9.22a154.75,154.75,0,0,0-34.32,3.49,114.28,114.28,0,0,0-27.65,10,102.6,102.6,0,0,0-22.4,15.89,125.54,125.54,0,0,0-17.64,20.5v-40h-97.87V1037.6h97.87Zm317.23,175.09a119.88,119.88,0,0,0,39.09,19.22,166.19,166.19,0,0,0,47,6.52,183.83,183.83,0,0,0,38-3.66,125.29,125.29,0,0,0,31.3-10.79,114.71,114.71,0,0,0,25.42-17.65,98.16,98.16,0,0,0,19.07-23.83c.21,4.25.47,8.53.79,12.87s.64,8.58,1,12.71.74,7.95,1.27,11.45,1,6.51,1.43,9h92.15q-2.86-10.49-4.92-21.77t-3.34-23.67q-1.28-12.39-1.59-26.54t-.32-30.34l.64-97.56q.32-39.72-10.33-67.05t-30.19-44.48q-19.55-17.18-48-25t-64-7.79q-35.59,0-63.56,8.58t-47.18,23.68a109,109,0,0,0-30.19,36.54,130.86,130.86,0,0,0-13.51,47.19h96q.32-14.61,4.29-25.11a47.91,47.91,0,0,1,11.28-17.63,45.91,45.91,0,0,1,17.63-10.65,74.07,74.07,0,0,1,23.68-3.49,67.9,67.9,0,0,1,24.15,4,42.58,42.58,0,0,1,17.64,12.39q7.14,8.43,11.12,21.3t4,30.66v10.28a878.35,878.35,0,0,0-91.84,10.22q-41.94,7.15-71.82,20.65t-45.91,34.8q-16.05,21.3-16.05,52.11v.64q0,23.19,9.54,41.31A91.7,91.7,0,0,0,2609.72,1021.71Zm65.14-77.53q0-15.25,7.79-25.74t24-17.48q16.2-7,40.52-11c15.71-2.57,34.13-4.48,55.13-5.76v22.12a120.43,120.43,0,0,1-2.7,26.54,96.42,96.42,0,0,1-7.31,21.28,58.29,58.29,0,0,1-11.6,16.21,71.41,71.41,0,0,1-15.25,11.44,64,64,0,0,1-18,6.68,95.47,95.47,0,0,1-19.86,2.06,70,70,0,0,1-21.61-3.18,49.27,49.27,0,0,1-16.84-9,38.37,38.37,0,0,1-10.64-14.3,47.8,47.8,0,0,1-3.66-19.23Zm401.76-373.71h-97.87V1037.6h97.87ZM553.8,1463.15l-1.27-169.37h.64l114.08,367.34H770.84l111.86-367h.63l-1.58,169.05v198h95.33V1194H831.85l-107.4,361.3h-.64L614.5,1194H466.1v467.12h87.7Zm670.6,139.18q-15.27,0-26.7-5.08a46,46,0,0,1-18.91-15.41q-7.47-10.32-11.28-25.58T1163.7,1521V1330h-97.87v205q0,31.77,7.14,56.88t21.77,42.9a91.45,91.45,0,0,0,36.71,26.85q22.08,9.06,52.27,9.06a154.12,154.12,0,0,0,34.32-3.5,108.7,108.7,0,0,0,27.8-10.32,106.6,106.6,0,0,0,22.57-16.37,112.29,112.29,0,0,0,17.31-21v41.62h97.56V1330h-97.56v191a152.65,152.65,0,0,1-3.65,35.27q-3.66,15.26-11.28,25.58a47,47,0,0,1-19.22,15.41Q1240,1602.34,1224.4,1602.33Zm513.13-107.08q-15.1-12.07-36.55-20a325.55,325.55,0,0,0-48.14-13.35L1602,1451.71a157.29,157.29,0,0,1-21.29-5.88,51.53,51.53,0,0,1-15.26-8.26,34.25,34.25,0,0,1-9.21-11.28,32.23,32.23,0,0,1-3.18-14.62V1411a30.18,30.18,0,0,1,3.81-15.25,35.07,35.07,0,0,1,10.65-11.44A51.44,51.44,0,0,1,1584,1377a80.24,80.24,0,0,1,20.5-2.55,83,83,0,0,1,21.77,2.71,47.91,47.91,0,0,1,17.16,8.25,47.34,47.34,0,0,1,12.07,14.31,73.06,73.06,0,0,1,7.47,20.81h94.38q-4.46-25.1-16.68-44.33a108.62,108.62,0,0,0-31.78-32.25q-19.54-13-45.92-19.39t-58.79-6.35q-31.77,0-58.47,7.47t-46.24,21q-19.53,13.51-30.34,32.41a82.67,82.67,0,0,0-10.81,41.79v.63a91.73,91.73,0,0,0,7,36.39,83.79,83.79,0,0,0,20.34,28.76q13.35,12.39,32.73,21.29a205.19,205.19,0,0,0,43.54,14l52.43,10.49a199.77,199.77,0,0,1,24.94,6.19,80,80,0,0,1,19.07,8.74,35.47,35.47,0,0,1,11.76,12.08q4,7,4,17.16v.63a32.74,32.74,0,0,1-1.9,11.28,28.76,28.76,0,0,1-5.41,9.22,38.46,38.46,0,0,1-8.58,7.15,51.57,51.57,0,0,1-11.44,5.25,86,86,0,0,1-13.82,3.17,104.77,104.77,0,0,1-15.41,1.11,91.19,91.19,0,0,1-26.06-3.49,59.52,59.52,0,0,1-20.34-10.33,52.37,52.37,0,0,1-14-17.32,87.3,87.3,0,0,1-7.94-24.15h-94.38a117.1,117.1,0,0,0,14.77,45.76,111.54,111.54,0,0,0,32.42,35.27q20.49,14.63,49.25,22.72t65.3,8.11q34,0,62-7.48t48-21.28a100.44,100.44,0,0,0,31.15-33.68q11.11-19.86,11.12-44.65v-.64q0-22.24-8.11-39.08A82.48,82.48,0,0,0,1737.53,1495.25Zm379.82,145.06a136.19,136.19,0,0,0,35.28-34.8,146.6,146.6,0,0,0,20.49-43.53h-95.65a65.53,65.53,0,0,1-25.9,34.48,65.77,65.77,0,0,1-20.33,8.9,99,99,0,0,1-25,3q-19.38,0-34.79-7.46a68.62,68.62,0,0,1-25.9-21.93q-10.49-14.46-15.89-35.75a157.65,157.65,0,0,1-4.12-26.37h252v-.32q1.59-42.27-8.74-78.49t-32.25-62.92q-21.93-26.7-55.77-41.78t-79-15.1q-37.5,0-69.75,12.24a162.34,162.34,0,0,0-55.93,35.1q-23.67,22.89-37,55.3t-13.34,72.77v.64q0,39.4,12.23,72a157.11,157.11,0,0,0,35.27,55.93q23,23.35,56.09,36.06t74.68,12.72q35.27,0,63.55-8T2117.35,1640.31Zm-172.39-236a59.84,59.84,0,0,1,25-20.33,81.5,81.5,0,0,1,32.57-6.36,75.57,75.57,0,0,1,30.82,6,69.85,69.85,0,0,1,23.36,16.53,71.45,71.45,0,0,1,14.93,25.73,122,122,0,0,1,6.2,33.37v.31H1926.16a151.67,151.67,0,0,1,3.23-19.38Q1934.79,1418.34,1945,1404.36Zm519.65,256.76h97.55V1330h-97.55v191q0,20-3.66,35.27t-11.28,25.58a47,47,0,0,1-19.22,15.41q-11.61,5.09-27.17,5.08-15.26,0-26.7-5.08a46,46,0,0,1-18.9-15.41q-7.47-10.32-11.29-25.58t-3.81-35.27V1330h-97.87v205q0,31.77,7.15,56.88t21.76,42.9a91.52,91.52,0,0,0,36.71,26.85q22.08,9.06,52.27,9.06a154.12,154.12,0,0,0,34.32-3.5,108.78,108.78,0,0,0,27.81-10.32,106.79,106.79,0,0,0,22.56-16.37,112.73,112.73,0,0,0,17.32-21Zm404.29,0h97.88V1470.46a152,152,0,0,1,3.49-34.16q3.49-15.09,10.65-25.74a47.17,47.17,0,0,1,18.9-16.36q11.76-5.73,28-5.72,15.55,0,27,5.08a47.19,47.19,0,0,1,19.06,15.41q7.63,10.33,11.29,25.58t3.65,35.59v191h97.56V1455.84q0-31.77-7-56.87t-21.61-42.75a93.54,93.54,0,0,0-36.87-26.85q-22.24-9.21-52.43-9.22a167,167,0,0,0-34.63,3.5,120.29,120.29,0,0,0-31.31,11.28,125.16,125.16,0,0,0-27.17,19.38,126.56,126.56,0,0,0-21.92,27.49,105.19,105.19,0,0,0-15.89-26.37,89.4,89.4,0,0,0-22.72-19.39,104.9,104.9,0,0,0-29.71-11.91,168.4,168.4,0,0,0-70.55-.48,114.17,114.17,0,0,0-27.65,10,102.4,102.4,0,0,0-22.4,15.89,124.51,124.51,0,0,0-17.63,20.49v-40H2649v331.11h97.88v-191q0-20.33,3.65-35.59t11.28-25.58a47,47,0,0,1,19.23-15.41q11.6-5.07,27.17-5.08,15.26,0,26.69,5.08A47.29,47.29,0,0,1,2854,1409q7.62,10.33,11.28,25.58t3.65,35.59v191Zm689.19-136.95a82.62,82.62,0,0,0-23.2-28.92q-15.1-12.07-36.55-20a325.55,325.55,0,0,0-48.14-13.35l-50.84-10.17a157.29,157.29,0,0,1-21.29-5.88,51.53,51.53,0,0,1-15.26-8.26,34.25,34.25,0,0,1-9.21-11.28,32.23,32.23,0,0,1-3.18-14.62V1411a30.08,30.08,0,0,1,3.82-15.25,34.93,34.93,0,0,1,10.64-11.44,51.44,51.44,0,0,1,16.52-7.31,80.3,80.3,0,0,1,20.5-2.55,83,83,0,0,1,21.77,2.71,47.91,47.91,0,0,1,17.16,8.25,47.06,47.06,0,0,1,12.07,14.31,73.06,73.06,0,0,1,7.47,20.81h94.38q-4.45-25.1-16.68-44.33a108.5,108.5,0,0,0-31.78-32.25q-19.54-13-45.92-19.39t-58.79-6.35q-31.77,0-58.47,7.47t-46.23,21q-19.55,13.51-30.35,32.41a82.66,82.66,0,0,0-10.8,41.79v.63q0,20,7,36.39a83.93,83.93,0,0,0,20.34,28.76q13.35,12.39,32.73,21.29a205.37,205.37,0,0,0,43.54,14l52.43,10.49a199.94,199.94,0,0,1,24.95,6.19,80.11,80.11,0,0,1,19.06,8.74,35.47,35.47,0,0,1,11.76,12.08q4,7,4,17.16v.63a32.74,32.74,0,0,1-1.9,11.28,28.58,28.58,0,0,1-5.41,9.22,38.46,38.46,0,0,1-8.58,7.15,51.57,51.57,0,0,1-11.44,5.25,86,86,0,0,1-13.82,3.17,104.77,104.77,0,0,1-15.41,1.11,91.24,91.24,0,0,1-26.06-3.49,59.52,59.52,0,0,1-20.34-10.33,52.37,52.37,0,0,1-14-17.32,87.3,87.3,0,0,1-7.94-24.15h-94.38a117.1,117.1,0,0,0,14.77,45.76,111.54,111.54,0,0,0,32.42,35.27q20.49,14.63,49.25,22.72T3414,1671q34,0,62-7.48t48-21.28a100.44,100.44,0,0,0,31.15-33.68q11.11-19.86,11.12-44.65v-.64Q3566.19,1541,3558.09,1524.17ZM567.47,1817.52H466.1v467.13H765.39v-76.9H567.47Zm254.79,467.13h97.87V1953.53H822.26Zm0-381h97.87v-86.12H822.26Zm338.47,288.19-86.8-238.3H970.66l130.92,331.12h103.6l130.6-331.12H1249Zm497.6-193.18q-21.93-26.7-55.77-41.78t-79-15.1q-37.5,0-69.75,12.24a162.12,162.12,0,0,0-55.93,35.11q-23.67,22.88-37,55.29t-13.35,72.78v.63q0,39.41,12.24,72a157.15,157.15,0,0,0,35.27,55.92q23,23.36,56.08,36.07t74.68,12.71q35.28,0,63.56-7.94t49.73-22.72a136.15,136.15,0,0,0,35.27-34.8,146.32,146.32,0,0,0,20.5-43.54h-95.65a65.57,65.57,0,0,1-25.9,34.48,65.59,65.59,0,0,1-20.34,8.9,98.81,98.81,0,0,1-24.94,3q-19.39,0-34.8-7.47a68.52,68.52,0,0,1-25.9-21.93q-10.48-14.46-15.89-35.74a159,159,0,0,1-4.12-26.38h252v-.32q1.58-42.26-8.74-78.49T1658.33,1998.65Zm-58.79,84.53H1447.9a152.84,152.84,0,0,1,3.23-19.38q5.4-21.93,15.58-35.92a59.88,59.88,0,0,1,24.94-20.33,81.71,81.71,0,0,1,32.57-6.35,75.62,75.62,0,0,1,30.83,6,70,70,0,0,1,23.35,16.53,71.6,71.6,0,0,1,14.94,25.74,122.35,122.35,0,0,1,6.2,33.36Zm331.58-128.53a105.14,105.14,0,0,0-29.55,16.2,109.49,109.49,0,0,0-22.72,24.15,151.13,151.13,0,0,0-15.89,29.71v-71.18h-96v331.12h97.87V2125.44q0-23.82,6-39.87t17.16-25.75a65.52,65.52,0,0,1,26.85-13.82,138.41,138.41,0,0,1,35.11-4.13h22.56v-93.11h-6A104.09,104.09,0,0,0,1931.12,1954.65Zm423.27,68.63a159.46,159.46,0,0,0-23.51-34.48,137.63,137.63,0,0,0-29.71-25,135.25,135.25,0,0,0-34-15.09,132.68,132.68,0,0,0-36.54-5.08,151.83,151.83,0,0,0-35.75,4,124,124,0,0,0-29.87,11.28,104.38,104.38,0,0,0-23.68,17.32,100.32,100.32,0,0,0-17.15,22.4v-45.12h-97.88V2407h97.88V2239.53a107,107,0,0,0,17.15,22.24,101.44,101.44,0,0,0,23.68,17.48,123.52,123.52,0,0,0,29.87,11.27,151.29,151.29,0,0,0,35.75,4,133.29,133.29,0,0,0,36.38-5.08,134.75,134.75,0,0,0,34.17-15.1,137.58,137.58,0,0,0,29.71-24.94,159.46,159.46,0,0,0,23.51-34.48,188.28,188.28,0,0,0,15.57-43.54,229.65,229.65,0,0,0,5.56-52v-.64a229.07,229.07,0,0,0-5.56-52.11A188.81,188.81,0,0,0,2354.39,2023.28Zm-81.51,96.13a209,209,0,0,1-2.38,32.57,128.84,128.84,0,0,1-7.31,27.48,102.3,102.3,0,0,1-11.6,21.77,70.07,70.07,0,0,1-14.93,15.57,66.67,66.67,0,0,1-18.27,9.69,66,66,0,0,1-42.43,0,66.81,66.81,0,0,1-33.68-25.26,93.1,93.1,0,0,1-11.28-21.77,149.57,149.57,0,0,1-7.15-27.48,195.76,195.76,0,0,1-2.54-32.57v-.64a194.4,194.4,0,0,1,2.54-32.89,150.84,150.84,0,0,1,7.15-27.17,93.42,93.42,0,0,1,11.28-21.76,68.33,68.33,0,0,1,15.09-15.58,70,70,0,0,1,18.43-9.69,64,64,0,0,1,21.14-3.49,64.93,64.93,0,0,1,21.45,3.49,67.49,67.49,0,0,1,18.27,9.69,70.13,70.13,0,0,1,14.93,15.58,102.7,102.7,0,0,1,11.6,21.76,129.47,129.47,0,0,1,7.31,27.17,207.54,207.54,0,0,1,2.38,32.89ZM2737,1990.87q-23-23.36-56.08-36.22t-74.36-12.88q-41,0-73.89,12.88t-56.08,36.22a156.73,156.73,0,0,0-35.44,55.61q-12.23,32.25-12.23,71.34v.64q0,38.76,12.23,71.34t35.44,55.76q23.19,23.21,56.08,36.07t73.89,12.87q41.31,0,74.36-12.87t56.08-36.07q23-23.19,35.27-55.76t12.24-71.34v-.64q0-39.09-12.24-71.34A157.73,157.73,0,0,0,2737,1990.87Zm-53.54,127.27q0,26.37-4.93,47.18t-14.3,35.44a63.05,63.05,0,0,1-23.83,22.24q-14.46,7.62-33.53,7.63-19.38,0-33.68-7.63a64.61,64.61,0,0,1-23.83-22.24q-9.54-14.61-14.3-35.44t-4.77-47.18v-.32q0-26.37,4.77-47.19t14.3-35.27a66.42,66.42,0,0,1,23.83-22.25q14.29-7.78,33.68-7.78,19.08,0,33.53,7.78a64.77,64.77,0,0,1,23.83,22.25q9.38,14.46,14.3,35.27t4.93,47.19Zm462.83-127.27q-23-23.36-56.09-36.22t-74.36-12.88q-41,0-73.88,12.88t-56.08,36.22a156.73,156.73,0,0,0-35.44,55.61q-12.23,32.25-12.23,71.34v.64q0,38.76,12.23,71.34t35.44,55.76q23.19,23.21,56.08,36.07t73.88,12.87q41.31,0,74.36-12.87t56.09-36.07q23-23.19,35.27-55.76t12.24-71.34v-.64q0-39.09-12.24-71.34A157.73,157.73,0,0,0,3146.27,1990.87Zm-53.54,127.27q0,26.37-4.93,47.18t-14.3,35.44a63.05,63.05,0,0,1-23.83,22.24q-14.46,7.62-33.53,7.63-19.38,0-33.68-7.63a64.61,64.61,0,0,1-23.83-22.24q-9.54-14.61-14.3-35.44t-4.77-47.18v-.32q0-26.37,4.77-47.19t14.3-35.27a66.42,66.42,0,0,1,23.83-22.25q14.29-7.78,33.68-7.78,19.08,0,33.53,7.78a64.77,64.77,0,0,1,23.83,22.25q9.38,14.46,14.3,35.27t4.93,47.19Zm168.73,166.51h97.88V1817.52h-97.88Z" transform="translate(-466.1 -466.91)"/></svg>